<svg id="Capa_1" enable-background="new 0 0 512 512" height="512" viewBox="0 0 512 512" width="512" xmlns="http://www.w3.org/2000/svg"><g><g><g><g><g><g><g><g><g><g><path d="m244.863 42.003-220.534 191.993c-4.059 3.534-6.412 8.809-6.412 14.377v237.522c0 10.275 7.857 18.604 17.548 18.604h441.069c9.692 0 17.548-8.329 17.548-18.604v-237.521c0-5.568-2.353-10.844-6.412-14.377l-220.533-191.994c-6.473-5.636-15.801-5.636-22.274 0z" fill="#ffc250"/><g><path d="m492.608 240.91-210.497 136.273c-15.888 10.286-36.334 10.286-52.222 0l-210.496-136.275c-.961 2.326-1.475 4.864-1.475 7.466v237.522c0 10.275 7.857 18.604 17.548 18.604h441.069c9.692 0 17.548-8.329 17.548-18.604v-237.522c0-2.601-.514-5.138-1.475-7.464z" fill="#ffe07d"/></g><g><path d="m492.608 240.91-63.859 41.341v168.996c0 10.275-7.857 18.604-17.548 18.604h-393.284v16.044c0 10.275 7.857 18.604 17.548 18.604h441.069c9.692 0 17.548-8.329 17.548-18.604v-237.521c.001-2.601-.513-5.138-1.474-7.464z" fill="#ffd064"/></g></g></g></g><g><path d="m229.889 377.183c15.888 10.286 36.334 10.286 52.222 0l170.504-110.382v-147.444c0-10.657-4.234-20.878-11.77-28.414l-71.672-71.673c-7.536-7.536-17.757-11.77-28.415-11.77h-241.188c-22.193 0-40.185 17.991-40.185 40.185v219.115z" fill="#eaf2ff"/><g><path d="m440.845 90.943-53.417-53.417c.121 1.268.186 2.547.186 3.831v267.525l65-42.08v-147.445c.001-10.657-4.233-20.878-11.769-28.414z" fill="#dbe8f9"/></g><path d="m440.845 90.943-71.672-71.673c-3.435-3.435-7.432-6.175-11.77-8.15v76.526c0 10.196 8.265 18.461 18.461 18.461h74.497c-1.975-5.653-5.201-10.85-9.516-15.164z" fill="#e07f84"/></g></g></g></g><g><circle cx="256" cy="196.557" fill="#c9e0fd" r="95.313"/><path d="m305.768 186.468c-.997-4.522-6.622-6.143-9.896-2.868l-25.712 25.712c-4.603 4.603-12.066 4.603-16.669 0l-10.246-10.246c-4.603-4.603-4.603-12.066 0-16.669l25.712-25.712c3.274-3.274 1.654-8.898-2.868-9.896-16.821-3.71-35.122.975-48.206 14.059-9.445 9.445-14.513 21.609-15.206 33.972-.006.113-.012.226-.018.338-.791 15.061-7.049 29.311-17.713 39.976l-10.599 10.599c3.915 6.49 8.656 12.621 14.257 18.221 5.6 5.6 11.731 10.341 18.221 14.257l10.599-10.599c10.618-10.618 24.791-16.95 39.788-17.704.174-.009.349-.018.526-.028 12.363-.693 24.527-5.761 33.972-15.206 13.083-13.084 17.769-31.385 14.058-48.206z" fill="#eaf2ff"/></g></g><path d="m35.466 504.5h441.069c5.676 0 10.707-2.869 13.915-7.3l-183.517-135.353-.561-.37-24.262 15.707c-15.888 10.286-36.334 10.286-52.222 0l-24.688-15.984-.72.709-182.463 135.929c3.219 4.07 8.046 6.662 13.449 6.662z" fill="#ffc250"/><path d="m428.729 451.678c-.218 10.074-7.973 18.174-17.528 18.174h-351.618l-37.566 27.986c3.219 4.07 8.047 6.662 13.449 6.662h441.069c5.676 0 10.707-2.869 13.915-7.3z" fill="#ebb044"/></g></g><g><g><path d="m492.596 228.339-32.481-28.277v-80.705c0-12.737-4.96-24.711-13.966-33.718l-71.673-71.673c-9.007-9.006-20.981-13.966-33.718-13.966h-241.188c-26.293 0-47.685 21.391-47.685 47.685v34.701c0 4.142 3.358 7.5 7.5 7.5s7.5-3.358 7.5-7.5v-34.701c0-18.023 14.663-32.685 32.685-32.685h241.188c3.14 0 6.21.447 9.145 1.297v71.349c0 14.315 11.646 25.961 25.961 25.961h68.74c.332 1.88.511 3.801.511 5.75v143.365l-167.08 108.166c-13.208 8.551-30.507 8.78-44.07 0l-167.08-108.168v-143.947c0-4.142-3.358-7.5-7.5-7.5s-7.5 3.358-7.5 7.5v81.289l-32.481 28.277c-5.149 4.483-8.987 11.677-8.987 20.034v237.522c0 14.291 11.142 26.104 25.049 26.104h441.068c13.812 0 25.048-11.71 25.048-26.104v-237.521c.001-8.321-3.832-15.547-8.986-20.035zm-116.732-129.732c-6.044 0-10.961-4.917-10.961-10.961v-62.04l70.639 70.639c.757.757 1.471 1.546 2.144 2.361h-61.822zm84.251 121.343 21.78 18.961-21.78 14.1zm-434.695 266c0-.018-.003-.036-.003-.054v-232.153l166.773 107.968zm26.465-232.941-21.778-14.099 21.778-18.96zm-16.19 243.991 169.929-126.592 20.19 13.071c18.509 11.983 42.229 11.747 60.373 0l19.94-12.909 55.932 41.254c3.354 2.475 8.045 1.728 10.487-1.584 2.459-3.333 1.75-8.029-1.584-10.487l-51.378-37.895 166.998-108.113v231.284l-87.317-64.401c-3.333-2.459-8.028-1.75-10.487 1.584s-1.75 8.029 1.584 10.487l87.109 64.248c-.309.032-.621.052-.937.052h-440.839z"/><path d="m358.813 196.557c0-56.822-45.984-102.813-102.813-102.813-56.821 0-102.813 45.983-102.813 102.813 0 56.821 45.983 102.813 102.813 102.813 56.822 0 102.813-45.983 102.813-102.813zm-102.813-87.772c48.354 0 87.813 39.039 87.813 87.772 0 63.855-66.24 106.501-124.506 79.777l3.419-3.419c25.036-25.034 47.187-5.837 74.286-32.938 14.487-14.487 20.499-35.094 16.08-55.125-2.268-10.28-15.061-14.019-22.523-6.556l-25.712 25.712c-1.675 1.675-4.388 1.675-6.063 0l-10.246-10.246c-1.675-1.675-1.675-4.387 0-6.062l25.712-25.712c7.444-7.443 3.752-20.249-6.556-22.523-20.034-4.419-40.639 1.593-55.125 16.08-26.881 26.881-8.093 49.442-32.938 74.286l-3.443 3.444c-5.238-11.368-8.012-23.827-8.012-36.717.001-48.743 39.469-87.773 87.814-87.773zm-72.056 137.957 6.305-6.306c29.012-29.011 10.981-52.328 32.938-74.286 10.127-10.127 24.255-14.724 38.293-12.595l-23.537 23.537c-7.537 7.536-7.539 19.738 0 27.275l10.246 10.246c7.536 7.537 19.738 7.539 27.276 0l23.537-23.537c2.128 14.041-2.467 28.165-12.595 38.292-22.247 22.248-44.849 3.501-74.286 32.938l-6.294 6.294c-8.443-5.883-15.694-13.011-21.883-21.858z"/></g></g></g></svg>